<svg xmlns="http://www.w3.org/2000/svg" version="1.0" width="1600.000000pt" height="758.000000pt" viewBox="0 0 1600.000000 758.000000" preserveAspectRatio="xMidYMid meet">
<metadata fill="#6495ed">
Created by potrace 1.16, written by Peter Selinger 2001-2019
</metadata>
<g transform="translate(0.000000,758.000000) scale(0.100000,-0.100000)" fill="#6495ed" stroke="none">
<path d="M0 5945 l0 -1635 217 0 217 0 61 58 60 57 -60 -62 -59 -63 -221 -2 -220 -3 220 -2 219 -3 68 67 c37 36 64 71 61 77 -3 6 -2 8 2 3 5 -4 19 3 32 15 24 23 31 44 11 32 -7 -4 32 39 87 95 55 55 102 101 105 101 2 0 -38 -44 -90 -97 l-95 -98 102 99 c56 55 99 104 96 109 -3 6 -1 7 5 3 11 -7 44 32 37 44 -2 3 40 49 93 101 l97 94 -95 -100 -95 -100 102 99 c56 55 99 104 96 110 -3 6 -2 8 2 3 5 -4 19 3 32 15 25 23 32 48 8 28 -41 -34 -4 6 92 100 l108 105 -90 -95 c-50 -53 17 12 147 145 208 211 265 273 228 250 -23 -14 -5 6 97 105 l108 105 -95 -100 -95 -100 117 115 c107 104 140 143 106 124 -7 -4 32 39 87 95 55 55 102 101 105 101 2 0 -38 -44 -90 -97 l-95 -98 102 99 c56 55 99 104 96 109 -3 6 -1 7 5 3 11 -7 44 32 37 44 -2 3 40 49 93 101 l97 94 -90 -95 c-78 -83 -74 -80 32 25 68 66 123 124 123 129 0 5 -8 3 -17 -5 -10 -7 29 35 87 94 57 59 107 107 110 107 2 0 -38 -43 -90 -95 -52 -52 -89 -95 -83 -95 6 0 13 4 15 9 2 5 52 59 111 120 60 61 106 115 103 119 -3 5 6 20 19 32 l25 23 0 304 c0 238 -3 303 -13 303 -7 0 -52 -39 -100 -88 -80 -80 -106 -114 -74 -96 6 4 -19 -25 -58 -65 -38 -39 -72 -71 -74 -71 -3 0 21 28 54 63 47 49 44 47 -13 -10 -41 -40 -71 -76 -68 -81 3 -5 -27 -40 -67 -78 l-72 -69 65 70 c61 66 60 65 -18 -12 -46 -45 -81 -86 -78 -91 3 -5 -23 -35 -57 -68 l-62 -59 60 65 c54 59 52 57 -23 -15 -75 -72 -102 -107 -69 -89 6 4 -19 -25 -58 -65 -38 -39 -72 -71 -74 -71 -3 0 21 28 54 63 47 49 44 47 -13 -10 -41 -40 -71 -76 -68 -81 3 -5 -27 -40 -67 -78 l-72 -69 65 70 c61 66 60 65 -18 -12 -46 -45 -81 -86 -78 -91 3 -5 -25 -37 -62 -73 l-67 -64 65 70 65 70 -78 -75 c-70 -68 -96 -102 -64 -84 6 4 -19 -25 -58 -65 -38 -39 -72 -71 -74 -71 -3 0 24 30 59 68 45 47 39 41 -23 -18 -79 -77 -107 -113 -74 -94 6 4 -19 -25 -58 -65 -38 -39 -72 -71 -74 -71 -3 0 24 30 59 68 64 66 64 66 -13 -8 -42 -41 -75 -80 -73 -86 2 -6 -26 -40 -62 -75 l-67 -64 60 65 c48 53 43 49 -23 -17 -46 -45 -81 -86 -78 -91 3 -5 -23 -35 -57 -68 l-62 -59 55 60 c47 51 43 49 -22 -15 -71 -69 -96 -101 -65 -84 6 4 -19 -25 -58 -65 -38 -39 -72 -71 -74 -71 -3 0 24 30 59 68 64 66 64 66 -13 -8 -42 -41 -75 -80 -73 -86 2 -6 -28 -42 -67 -80 l-72 -69 65 70 c61 66 60 65 -18 -12 -46 -45 -81 -86 -78 -91 3 -5 -6 -20 -20 -33 -14 -13 -25 -19 -24 -14 1 6 2 612 1 1348 l-1 1337 -220 0 -220 0 0 -1635z" fill="#6495ed"/>
<path d="M452 6248 c-1 -736 0 -1338 2 -1338 2 0 10 8 17 17 10 11 10 14 2 9 -10 -6 -13 264 -16 1321 l-2 1328 -3 -1337z" fill="#6495ed"/>
<path d="M2940 7265 l0 -315 258 2 257 3 3 313 2 312 -260 0 -260 0 0 -315z" fill="#6495ed"/>
<path d="M6860 7265 l0 -315 260 0 260 0 0 315 0 315 -260 0 -260 0 0 -315z" fill="#6495ed"/>
<path d="M8075 7569 c-15 -7 -12 -8 15 -4 35 4 35 4 -6 -9 -22 -8 -55 -21 -72 -30 -18 -9 -32 -14 -32 -11 0 2 17 13 38 24 20 11 32 20 26 21 -19 0 -108 -61 -156 -108 -44 -43 -64 -73 -36 -56 7 4 8 3 4 -5 -4 -6 -11 -9 -16 -6 -5 3 -19 -13 -30 -36 -12 -22 -17 -38 -12 -35 6 3 3 -16 -6 -44 -9 -27 -19 -45 -23 -39 -7 12 -19 -25 -18 -56 1 -12 4 -9 8 9 3 17 6 -530 6 -1214 0 -684 -3 -1231 -6 -1214 -6 26 -7 26 -7 4 0 -14 4 -36 8 -50 7 -21 8 -22 10 -5 l1 20 9 -20 c5 -11 9 -27 9 -35 1 -13 0 -13 -10 0 -8 11 -9 9 -3 -10 12 -43 44 -101 54 -95 5 3 12 0 16 -6 4 -8 3 -9 -4 -5 -21 13 -13 -10 10 -30 22 -19 23 -19 8 1 -14 18 -14 19 2 6 10 -7 16 -17 13 -21 -8 -13 75 -89 90 -84 7 3 16 0 21 -7 5 -8 3 -10 -7 -5 -8 4 -5 0 6 -9 27 -23 113 -61 155 -69 19 -3 6 4 -30 17 -69 25 -110 44 -110 53 0 2 12 -2 28 -10 15 -8 56 -23 91 -35 64 -21 71 -21 1297 -21 l1232 0 71 24 c39 13 68 20 65 14 -3 -5 8 -2 25 6 35 19 43 32 9 16 -22 -11 -22 -11 -3 5 11 8 25 13 32 11 17 -7 135 104 129 120 -3 7 0 16 6 20 7 5 8 2 3 -6 -5 -9 -4 -11 4 -6 15 10 76 132 85 171 5 23 4 27 -5 15 -10 -13 -10 -13 -6 1 26 81 28 213 25 1327 -2 640 0 1153 4 1140 4 -13 5 -6 2 17 -6 47 -60 170 -82 188 -13 10 -14 9 -7 -2 5 -10 4 -12 -4 -7 -6 4 -8 12 -5 18 8 12 -65 88 -80 82 -6 -2 -22 6 -36 17 l-25 21 30 -16 30 -17 -23 20 c-13 11 -28 18 -35 15 -7 -2 -34 5 -62 15 -27 11 -44 20 -37 21 7 0 29 -7 49 -15 20 -8 38 -14 40 -11 2 2 -14 11 -36 20 -37 14 -171 16 -1378 15 -785 0 -1346 -4 -1358 -10z m1335 -399 l-995 -5 1010 -5 c961 -5 1012 -6 1045 -24 19 -10 46 -28 60 -40 l25 -21 -20 24 c-21 24 -62 49 -105 62 -17 5 -19 8 -7 8 27 1 89 -34 122 -70 17 -17 24 -29 16 -24 -9 5 -12 3 -9 -6 3 -8 9 -13 14 -12 5 1 11 -11 13 -25 2 -15 5 -496 7 -1070 2 -778 0 -1041 -8 -1036 -8 5 -9 2 -5 -9 4 -10 2 -16 -5 -14 -6 1 -13 -4 -16 -12 -3 -9 0 -11 9 -6 8 5 1 -7 -16 -24 -16 -18 -48 -43 -70 -54 l-40 -22 -1003 -3 c-645 -1 -1017 1 -1041 8 -20 5 -45 17 -56 25 -15 12 -11 11 15 -2 33 -17 93 -18 1050 -18 l1015 0 -1015 5 -1015 5 -38 23 c-44 25 -51 27 -41 10 4 -7 -5 -2 -19 11 -15 13 -24 28 -21 32 6 11 -15 51 -35 66 -14 10 -16 111 -19 1000 -3 974 0 1080 29 1098 5 4 5 -5 -1 -20 -6 -15 -10 -32 -9 -38 0 -7 7 5 15 27 7 21 11 42 8 47 -3 5 0 8 8 7 7 -2 13 4 13 12 1 21 15 41 25 35 5 -3 24 4 42 15 18 11 28 20 23 20 -6 0 -22 -8 -35 -17 -24 -16 -24 -16 -11 0 36 45 47 46 1096 44 l990 -2 -995 -5z m1190 -2211 l-11 -24 6 25 c2 14 6 475 7 1025 l3 1000 2 -1001 c2 -673 0 -1010 -7 -1025z" fill="#6495ed"/>
<path d="M8225 5980 c0 -547 1 -771 2 -497 2 273 2 721 0 995 -1 273 -2 49 -2 -498z" fill="#6495ed"/>
<path d="M12875 7570 l1000 -5 -1035 -5 c-921 -5 -1040 -7 -1081 -22 -83 -29 -151 -69 -208 -121 l-56 -51 50 52 c27 29 77 67 112 84 34 18 60 34 58 36 -10 10 -117 -58 -167 -106 -68 -64 -149 -182 -108 -157 6 3 7 -1 4 -9 -3 -9 -10 -14 -14 -11 -4 3 -11 -2 -14 -11 -9 -24 -7 -31 4 -14 12 18 12 2 0 -25 -6 -14 -9 -15 -10 -5 -1 10 -4 9 -10 -5 -12 -28 -11 -56 1 -30 8 16 8 15 2 -5 -4 -14 -9 -665 -10 -1447 l-3 -1423 250 0 250 0 2 1338 3 1337 5 -1340 5 -1340 3 1338 2 1337 955 0 955 0 2 -1337 3 -1338 5 1340 5 1340 3 -1337 2 -1338 245 0 245 0 0 1413 c0 1224 -2 1421 -15 1470 -18 68 -18 77 -4 57 8 -11 9 -9 3 10 -11 42 -44 101 -53 95 -5 -2 -8 3 -7 12 0 10 -6 18 -14 18 -8 0 -14 7 -13 16 5 28 -134 143 -161 133 -7 -3 -28 2 -47 11 -32 15 -17 15 26 0 18 -6 18 -5 3 5 -10 6 -39 18 -65 28 -44 15 -143 16 -1078 17 l-1030 0 1000 -5z m477 -597 c-272 -2 -713 -2 -980 0 -268 1 -46 2 493 2 539 0 758 -1 487 -2z" fill="#6495ed"/>
<path d="M4198 7198 c-1 -189 -2 -360 -1 -381 2 -40 32 -142 39 -134 3 2 0 17 -6 32 -6 15 -9 29 -7 31 2 2 15 -25 29 -61 14 -35 21 -62 15 -58 -5 3 -8 0 -5 -8 3 -8 10 -14 16 -14 5 0 14 -4 19 -9 5 -5 2 -6 -6 -1 -9 5 -12 3 -9 -6 3 -8 10 -13 16 -12 5 1 9 -5 8 -15 0 -9 6 -17 14 -17 8 0 14 -7 12 -16 -2 -18 183 -203 196 -195 5 3 55 -43 113 -102 l104 -107 -105 100 c-95 90 -93 87 25 -32 118 -120 158 -155 139 -120 -4 6 46 -40 110 -103 64 -63 116 -117 116 -120 0 -2 -51 45 -112 105 l-113 110 120 -123 c66 -67 125 -120 131 -118 6 2 58 -44 115 -102 l104 -107 -110 105 -110 105 109 -112 c60 -62 113 -110 118 -107 5 3 7 1 6 -4 -2 -6 15 -27 37 -47 22 -20 93 -88 157 -152 64 -63 121 -113 126 -110 4 3 55 -42 113 -101 l104 -107 -110 105 -110 105 109 -112 c60 -62 114 -109 119 -106 6 3 7 2 4 -4 -4 -5 5 -20 18 -31 28 -25 40 -28 29 -9 -4 6 9 -3 28 -21 20 -19 35 -41 34 -50 0 -9 4 -16 11 -15 8 2 10 -4 6 -14 -4 -10 -2 -14 4 -10 7 5 9 -1 6 -15 -3 -17 -2 -19 5 -10 7 11 11 7 16 -14 5 -20 3 -31 -8 -40 -19 -13 -22 -29 -3 -18 9 6 9 4 -1 -8 -7 -9 -34 -24 -59 -32 -42 -14 -179 -16 -1262 -14 l-1216 3 1232 5 c677 3 1234 7 1236 10 3 3 -546 4 -1219 2 l-1224 -2 -2 737 -3 738 -5 -740 -5 -740 -3 738 -2 737 -250 0 -250 0 0 -985 0 -985 1599 0 c1009 0 1617 4 1650 10 29 5 80 21 113 34 33 14 56 20 51 15 -6 -6 -39 -22 -74 -35 -35 -14 -50 -22 -34 -19 51 10 127 52 183 100 47 42 71 77 40 59 -8 -4 -10 -3 -5 2 5 5 14 9 20 9 7 0 11 8 11 17 -1 10 3 16 9 15 6 -1 22 25 35 58 20 48 26 81 28 165 3 123 -5 210 -17 170 l-7 -25 -1 25 c-1 14 -14 62 -30 107 -16 46 -24 80 -19 76 6 -3 8 0 6 8 -3 8 -11 13 -17 11 -7 -1 -10 2 -6 8 8 13 -14 52 -25 45 -6 -3 -7 0 -4 8 3 8 -3 20 -12 28 -15 12 -17 12 -9 0 5 -10 4 -12 -4 -7 -6 4 -8 12 -5 18 8 12 -566 589 -578 582 -5 -3 -7 0 -6 8 2 7 -3 12 -10 10 -6 -1 -11 2 -10 6 4 11 -503 508 -514 504 -4 -1 -7 4 -6 10 2 7 -3 12 -10 10 -8 -1 -11 1 -8 6 6 10 -62 77 -70 69 -10 -10 -419 392 -419 411 0 9 -5 17 -12 17 -6 0 -15 4 -20 9 -5 5 -2 6 6 1 9 -5 12 -3 9 6 -3 8 -10 13 -16 12 -6 -2 -9 3 -7 10 3 6 -4 35 -15 62 -12 28 -19 39 -16 26 4 -18 2 -21 -7 -12 -9 9 -13 95 -15 306 l-3 295 -250 0 -249 0 -2 -342z" fill="#6495ed"/>
<path d="M11105 6020 c0 -635 1 -895 2 -577 2 317 2 837 0 1155 -1 317 -2 57 -2 -578z" fill="#6495ed"/>
<path d="M7745 5970 c0 -646 1 -911 2 -588 2 324 2 852 0 1175 -1 324 -2 59 -2 -587z" fill="#6495ed"/>
<path d="M14345 5710 c0 -778 1 -1097 2 -707 2 389 2 1025 0 1415 -1 389 -2 70 -2 -708z" fill="#6495ed"/>
<path d="M11375 5690 c0 -767 1 -1081 2 -698 2 384 2 1012 0 1395 -1 384 -2 70 -2 -697z" fill="#6495ed"/>
<path d="M2935 5275 c0 -544 1 -766 2 -492 2 274 2 720 0 990 -1 271 -2 47 -2 -498z" fill="#6495ed"/>
<path d="M6880 5245 l0 -965 250 0 250 0 0 965 0 965 -250 0 -250 0 0 -965z" fill="#6495ed"/>
<path d="M6865 5240 c0 -531 1 -748 2 -483 2 266 2 700 0 965 -1 266 -2 49 -2 -482z" fill="#6495ed"/>
<path d="M7395 5240 c0 -514 1 -725 2 -467 2 257 2 677 0 935 -1 257 -2 46 -2 -468z" fill="#6495ed"/>
<path d="M8792 4323 c339 -2 897 -2 1240 0 343 1 65 2 -617 2 -682 0 -962 -1 -623 -2z" fill="#6495ed"/>
<path d="M4560 4280 l-1615 -5 1610 -1 c886 -1 1624 2 1640 6 25 6 26 7 5 6 -14 0 -752 -3 -1640 -6z" fill="#6495ed"/>
<path d="M3733 3383 c394 -2 1040 -2 1435 0 394 1 71 2 -718 2 -789 0 -1112 -1 -717 -2z" fill="#6495ed"/>
<path d="M7338 3383 c325 -2 859 -2 1185 0 325 1 59 2 -593 2 -652 0 -918 -1 -592 -2z" fill="#6495ed"/>
<path d="M13788 3383 c331 -2 873 -2 1205 0 331 1 60 2 -603 2 -663 0 -934 -1 -602 -2z" fill="#6495ed"/>
<path d="M6599 3363 c-53 -14 -136 -51 -145 -64 -3 -5 17 2 44 16 60 30 155 55 202 54 26 -1 19 -4 -25 -10 -72 -11 -115 -24 -178 -55 -27 -13 -52 -22 -57 -19 -4 2 -16 -5 -26 -18 l-19 -22 25 20 25 20 -18 -22 c-11 -12 -25 -19 -32 -17 -13 5 -39 -29 -29 -38 2 -3 -4 -11 -13 -19 -17 -13 -17 -13 -3 6 15 20 14 20 -8 1 -23 -20 -31 -43 -10 -30 7 4 8 3 4 -5 -4 -6 -11 -9 -16 -6 -9 5 -51 -65 -50 -82 1 -4 10 9 21 30 11 20 22 37 24 37 3 0 -3 -17 -14 -38 -52 -102 -51 -69 -53 -1358 l-3 -1199 -5 1205 -5 1205 -2 -1195 c-2 -980 0 -1205 11 -1253 7 -32 17 -61 21 -65 5 -4 5 1 2 10 -3 9 -8 34 -11 55 -4 23 1 13 13 -27 11 -36 18 -67 15 -69 -2 -2 -4 2 -4 9 0 7 -3 11 -6 8 -6 -6 33 -88 42 -88 3 0 2 5 -2 12 -4 7 -3 8 4 4 6 -4 9 -13 6 -20 -3 -7 3 -19 12 -27 15 -12 17 -12 9 0 -5 10 -4 12 4 7 6 -4 9 -11 6 -16 -6 -10 42 -70 56 -70 6 0 7 6 3 13 -4 6 2 3 14 -7 25 -21 31 -36 7 -16 -8 7 -15 10 -15 7 0 -10 91 -69 97 -63 4 3 2 6 -3 6 -5 0 -20 10 -34 21 -20 16 -16 15 20 -4 25 -14 76 -35 114 -46 67 -21 80 -21 1290 -21 1211 0 1223 0 1287 21 35 11 83 32 107 45 23 14 46 23 50 20 5 -3 27 12 50 33 41 37 55 60 30 45 -7 -4 -2 5 11 19 28 30 41 36 20 9 -8 -10 -2 -4 14 12 15 17 25 37 22 44 -2 7 -1 10 5 7 5 -3 14 3 19 14 14 25 14 34 1 26 -6 -3 -7 1 -4 9 3 9 11 14 17 13 6 -1 12 7 14 18 4 17 2 18 -7 5 -10 -13 -11 -12 -6 3 43 133 41 70 41 1312 0 644 -3 1190 -7 1215 -5 29 -4 38 2 25 5 -11 9 -33 10 -50 2 -20 4 -24 7 -11 10 38 -57 212 -88 232 -8 5 -9 3 -4 -6 5 -9 4 -11 -4 -6 -6 4 -8 12 -5 18 11 17 -122 138 -153 138 -4 0 15 -15 42 -34 28 -18 61 -46 75 -62 14 -16 4 -10 -24 14 -65 56 -139 91 -228 107 -40 7 -59 14 -43 14 17 1 55 -5 85 -13 62 -16 79 -14 27 3 -51 17 -2603 21 -2668 4z m2361 -427 c44 -23 91 -66 84 -77 -3 -5 2 -21 10 -36 8 -16 15 -21 16 -13 0 13 1 13 10 0 5 -8 10 -22 10 -30 0 -10 -3 -11 -8 -3 -4 6 -7 -452 -7 -1017 0 -566 2 -1026 5 -1023 3 2 7 460 10 1016 l5 1012 0 -1012 0 -1012 -22 -21 c-24 -22 -31 -46 -10 -34 7 4 9 3 4 -2 -5 -5 -14 -9 -19 -9 -6 0 -13 -6 -16 -14 -3 -9 0 -11 9 -6 8 5 6 -1 -5 -13 -10 -12 -22 -19 -27 -17 -4 3 -23 -4 -41 -15 -18 -11 -28 -20 -23 -20 6 0 22 8 35 17 23 16 24 16 11 0 -7 -9 -36 -24 -64 -32 -44 -13 -186 -15 -1031 -14 -540 1 -991 4 -1004 7 -13 4 427 6 978 4 550 -1 1014 1 1030 5 17 5 -433 8 -998 8 l-1029 0 -51 32 c-29 18 -52 30 -52 27 0 -2 21 -18 47 -34 26 -17 42 -30 36 -30 -13 0 -88 54 -99 71 -5 8 -3 10 6 4 8 -5 11 -3 8 6 -3 8 -10 14 -15 14 -6 0 -15 4 -20 9 -5 5 -3 6 5 2 14 -8 15 -5 6 19 -5 12 -9 14 -14 4 -26 -41 -30 98 -28 1061 l3 995 5 -1005 5 -1005 3 1005 c2 976 3 1006 22 1049 11 23 18 46 15 50 -10 17 68 74 124 92 14 4 481 7 1036 6 964 -2 1012 -3 1045 -21z" fill="#6495ed"/>
<path d="M7397 2943 c277 -2 729 -2 1005 0 277 1 51 2 -502 2 -553 0 -779 -1 -503 -2z" fill="#6495ed"/>
<path d="M14393 3373 l-1213 -3 0 -240 0 -240 1208 -2 1207 -3 -1205 -5 -1205 -5 1193 -3 1192 -2 0 -310 0 -310 -1002 -1 c-552 -1 -1013 -4 -1026 -7 -13 -4 444 -7 1015 -7 l1038 1 -1035 -6 -1035 -5 -59 -23 c-77 -29 -139 -66 -195 -115 l-46 -41 40 42 c22 22 67 57 99 76 33 20 55 36 49 36 -5 0 -37 -17 -69 -38 -68 -44 -147 -129 -139 -149 2 -8 1 -11 -5 -8 -12 7 -30 -27 -46 -90 -11 -39 -13 -144 -12 -465 l2 -415 6 435 c4 324 8 441 18 460 l13 25 -8 -25 c-6 -23 -21 -959 -15 -969 1 -2 2 7 3 20 0 13 8 -7 19 -46 10 -38 16 -72 14 -74 -2 -2 -4 2 -4 9 0 7 -3 11 -6 8 -7 -8 42 -104 57 -114 8 -5 9 -3 4 6 -5 8 -4 11 3 6 6 -4 9 -13 6 -20 -6 -15 93 -109 106 -101 4 3 32 -6 61 -20 30 -13 83 -29 119 -34 41 -7 412 -12 1005 -13 l940 -3 -950 -5 -950 -5 938 -3 937 -2 1 -240 c1 -132 2 -246 3 -252 1 -10 64 -14 269 -16 l268 -2 -2 341 c-1 187 -5 336 -8 330 -4 -5 -14 10 -23 35 -18 51 -14 59 7 12 8 -18 14 -27 15 -20 0 22 -50 113 -60 107 -5 -3 -12 0 -16 6 -4 8 -3 9 4 5 7 -4 12 -3 12 2 0 14 -132 137 -167 155 -53 28 -52 19 2 -12 28 -16 59 -39 70 -52 14 -16 7 -13 -20 9 -55 43 -125 72 -209 87 -62 12 -66 13 -31 15 l40 3 -50 7 c-27 5 -461 9 -962 9 l-913 1 0 305 0 305 948 2 947 3 -770 5 -770 5 765 3 c421 1 776 5 790 7 22 5 23 4 5 -5 -30 -15 39 -1 81 16 35 15 48 28 17 17 -23 -8 -14 1 16 17 18 9 22 9 16 0 -16 -25 41 14 98 68 52 51 75 83 45 66 -8 -4 -10 -3 -5 2 5 5 14 9 20 9 7 0 11 8 11 18 -1 9 2 14 7 12 10 -7 43 54 35 63 -3 3 -6 1 -6 -4 0 -6 -7 -19 -15 -30 -12 -15 -12 -11 1 18 10 20 21 35 25 32 4 -2 15 18 24 45 14 43 16 110 17 496 0 245 -3 449 -6 452 -3 4 -4 -23 -1 -58 l4 -64 -9 60 c-6 33 -14 73 -20 89 -15 43 -11 57 5 16 16 -42 20 -26 4 18 -6 18 -14 30 -18 27 -4 -2 -7 6 -7 18 1 12 -4 21 -10 20 -7 -1 -11 5 -10 15 0 9 -4 16 -11 15 -7 -2 -10 3 -7 11 3 7 -3 19 -13 27 -17 13 -17 13 -3 -6 14 -19 14 -19 -2 -6 -10 7 -15 17 -12 23 6 10 -55 72 -89 89 -25 13 -15 2 27 -29 16 -12 26 -22 22 -22 -4 0 -22 11 -39 24 -38 29 -96 53 -157 65 -32 6 -37 9 -17 10 15 1 53 -8 84 -19 31 -11 53 -16 47 -11 -15 15 -103 41 -127 39 -12 -2 -568 -4 -1234 -5z m680 -2290 c-255 -2 -671 -2 -925 0 -255 1 -47 2 462 2 509 0 717 -1 463 -2z" fill="#6495ed"/>
<path d="M3020 3095 l0 -275 1435 0 1435 0 0 275 0 275 -1435 0 -1435 0 0 -275z" fill="#6495ed"/>
<path d="M10012 3333 l-92 -4 2 -1406 c2 -774 0 -1394 -3 -1377 -6 26 -7 26 -7 4 0 -14 4 -36 8 -50 7 -21 8 -22 10 -5 1 11 7 1 16 -25 18 -57 17 -76 -2 -30 -12 31 -14 32 -9 6 10 -47 64 -158 74 -152 5 4 13 1 17 -5 4 -8 3 -9 -4 -5 -18 11 -14 -10 5 -25 14 -12 16 -12 8 0 -5 10 -4 12 4 7 6 -4 9 -12 5 -17 -3 -6 5 -22 17 -36 32 -35 138 -113 153 -113 6 1 -1 8 -16 16 -47 25 -31 23 35 -5 l62 -26 1050 -3 c1009 -3 1111 -1 1184 25 9 4 13 3 9 -2 -4 -4 -31 -14 -60 -21 -52 -14 -53 -14 -9 -9 25 3 73 19 107 36 71 33 178 125 170 145 -3 7 0 16 6 20 7 5 8 2 3 -7 -8 -12 -6 -12 8 0 19 15 23 36 5 25 -7 -4 -8 -3 -4 5 4 6 12 9 17 5 5 -3 21 20 34 51 30 66 33 97 5 40 -21 -41 -19 -32 9 45 14 41 16 182 19 1468 l2 1422 -245 0 -245 0 0 -1360 0 -1360 -965 0 -965 0 -1 688 c0 378 -2 703 -3 722 -1 19 -3 320 -4 668 l-2 632 -152 2 -153 2 155 6 155 6 -160 0 c-88 0 -202 -2 -253 -3z m1860 -2740 c-272 -2 -713 -2 -980 0 -268 1 -46 2 493 2 539 0 758 -1 487 -2z" fill="#6495ed"/>
<path d="M9905 1950 c0 -756 1 -1066 2 -688 2 379 2 997 0 1375 -1 379 -2 69 -2 -687z" fill="#6495ed"/>
<path d="M12865 1930 c0 -767 1 -1081 2 -698 2 384 2 1012 0 1395 -1 384 -2 70 -2 -697z" fill="#6495ed"/>
<path d="M9595 1800 c0 -624 1 -880 2 -568 2 313 2 823 0 1135 -1 313 -2 57 -2 -567z" fill="#6495ed"/>
<path d="M3743 2803 c395 -2 1039 -2 1430 0 392 1 69 2 -718 2 -786 0 -1107 -1 -712 -2z" fill="#6495ed"/>
<path d="M4048 2143 c338 -2 887 -2 1220 0 334 1 58 2 -613 2 -671 0 -944 -1 -607 -2z" fill="#6495ed"/>
<path d="M3315 2124 c-27 -9 -54 -20 -59 -24 -5 -5 19 0 54 11 34 10 74 19 88 18 15 0 0 -6 -33 -14 -33 -7 -78 -20 -99 -29 -21 -9 -42 -14 -46 -11 -9 6 -57 -32 -108 -85 -41 -43 -99 -160 -106 -215 -3 -23 -3 -30 2 -17 4 13 6 -378 4 -867 l-3 -891 246 0 245 0 0 800 0 800 1193 2 1192 3 -1185 5 -1185 5 1183 3 1182 2 0 255 0 255 -1214 0 c-667 0 -1233 2 -1257 5 -26 3 -65 -2 -94 -11z" fill="#6495ed"/>
<path d="M2995 865 c0 -478 1 -676 2 -438 2 237 2 629 0 870 -1 241 -2 47 -2 -432z" fill="#6495ed"/>
<path d="M3515 790 c0 -437 1 -616 2 -397 2 218 2 576 0 795 -1 218 -2 39 -2 -398z" fill="#6495ed"/>
<path d="M7293 103 c340 -2 894 -2 1230 0 337 1 59 2 -618 2 -676 0 -952 -1 -612 -2z" fill="#6495ed"/>
<path d="M10260 82 c32 -16 127 -17 1100 -17 l1065 -1 -1065 6 c-821 4 -1071 8 -1093 18 -42 18 -48 13 -7 -6z" fill="#6495ed"/>
</g>
</svg>