<?xml version="1.0" standalone="no"?>
<!DOCTYPE svg PUBLIC "-//W3C//DTD SVG 20010904//EN"
 "http://www.w3.org/TR/2001/REC-SVG-20010904/DTD/svg10.dtd">
<svg version="1.0" xmlns="http://www.w3.org/2000/svg"
 width="260.000000pt" height="117.000000pt" viewBox="0 0 260.000000 117.000000"
 preserveAspectRatio="xMidYMid meet">
<metadata>
Created by potrace 1.16, written by Peter Selinger 2001-2019
</metadata>
<g transform="translate(0.000000,117.000000) scale(0.100000,-0.100000)"
fill="#000000" stroke="none">
<path d="M0 905 l0 -265 48 0 47 1 163 170 162 171 0 77 0 76 -68 -70 c-37
-38 -109 -114 -160 -169 l-92 -98 0 186 0 186 -50 0 -50 0 0 -265z"/>
<path d="M480 1105 l0 -65 60 0 60 0 0 65 0 65 -60 0 -60 0 0 -65z"/>
<path d="M670 1100 c0 -43 6 -82 15 -99 8 -16 67 -78 132 -140 l118 -111 -167
0 -168 0 0 110 0 110 -60 0 -60 0 0 -165 0 -165 264 0 c251 0 265 1 290 21 22
17 26 28 26 71 l0 51 -140 142 -140 142 0 52 0 51 -55 0 -55 0 0 -70z"/>
<path d="M1120 1105 l0 -65 60 0 60 0 0 65 0 65 -60 0 -60 0 0 -65z"/>
<path d="M1345 1158 c-43 -23 -45 -33 -45 -249 0 -114 3 -215 6 -224 15 -38
55 -45 254 -45 208 0 236 6 258 55 8 17 12 91 12 221 l0 196 -29 29 -29 29
-204 0 c-127 0 -210 -5 -223 -12z m375 -258 l0 -150 -155 0 -155 0 0 150 0
150 155 0 155 0 0 -150z"/>
<path d="M1929 1155 c-43 -23 -49 -60 -49 -296 l0 -219 60 0 60 0 0 200 0 200
125 0 125 0 0 -200 0 -200 55 0 55 0 0 234 c0 129 -3 242 -6 251 -15 37 -56
45 -231 45 -126 -1 -175 -4 -194 -15z"/>
<path d="M1130 805 l0 -165 55 0 55 0 0 165 0 165 -55 0 -55 0 0 -165z"/>
<path d="M480 470 l0 -60 235 0 235 0 0 60 0 60 -235 0 -235 0 0 -60z"/>
<path d="M1064 520 c-50 -20 -54 -40 -54 -258 0 -273 -21 -252 259 -252 115 0
217 3 226 6 38 15 45 55 45 258 0 107 -3 202 -6 211 -15 38 -55 45 -256 44
-106 0 -203 -4 -214 -9z m366 -255 l0 -145 -150 0 -150 0 0 145 0 145 150 0
150 0 0 -145z"/>
<path d="M1602 296 c3 -232 3 -235 27 -260 l24 -26 187 0 187 0 24 26 c24 25
24 28 27 260 l3 234 -55 0 -56 0 0 -205 0 -205 -130 0 -130 0 0 205 0 205 -56
0 -55 0 3 -234z"/>
<path d="M2140 475 l0 -55 180 0 180 0 0 -30 0 -30 -160 0 c-157 0 -161 -1
-185 -25 -22 -22 -25 -32 -25 -105 0 -141 11 -149 203 -150 l147 0 0 -40 0
-40 61 0 61 0 -4 71 c-3 63 -7 74 -31 95 -27 23 -35 24 -173 24 l-144 0 0 30
0 30 145 0 c142 0 147 1 170 25 23 22 25 32 25 120 0 140 10 135 -245 135
l-205 0 0 -55z"/>
<path d="M509 321 c-23 -18 -24 -25 -27 -170 l-3 -151 55 0 56 0 0 115 0 115
180 0 180 0 0 55 0 55 -209 0 c-191 0 -211 -2 -232 -19z"/>
</g>
</svg>
